<?xml version="1.0" encoding="UTF-8" standalone="no"?>
<!-- Created with Inkscape (http://www.inkscape.org/) -->

<svg
   width="125.28314mm"
   height="127.6315mm"
   viewBox="0 0 125.28314 127.6315"
   version="1.1"
   id="svg1"
   xml:space="preserve"
   inkscape:version="1.4.2 (f4327f4, 2025-05-13)"
   xmlns:inkscape="http://www.inkscape.org/namespaces/inkscape"
   xmlns:sodipodi="http://sodipodi.sourceforge.net/DTD/sodipodi-0.dtd"
   xmlns="http://www.w3.org/2000/svg"
   xmlns:svg="http://www.w3.org/2000/svg"><sodipodi:namedview
     id="namedview1"
     pagecolor="#ffffff"
     bordercolor="#000000"
     borderopacity="0.25"
     inkscape:showpageshadow="2"
     inkscape:pageopacity="0.0"
     inkscape:pagecheckerboard="0"
     inkscape:deskcolor="#d1d1d1"
     inkscape:document-units="mm"
     inkscape:zoom="0.58362846"
     inkscape:cx="-763.3281"
     inkscape:cy="36.838505"
     inkscape:window-width="3840"
     inkscape:window-height="2071"
     inkscape:window-x="-9"
     inkscape:window-y="1193"
     inkscape:window-maximized="1"
     inkscape:current-layer="layer1" /><defs
     id="defs1" /><g
     inkscape:label="Layer 1"
     inkscape:groupmode="layer"
     id="layer1"
     transform="translate(-35.282882,-75.418968)"><path
       style="fill:#ffffff;stroke-width:0.449098"
       d="m 35.639354,200.59992 v -2.43589 h 0.356471 0.356472 v 2.43589 2.43589 h -0.356472 -0.356471 z m 2.93644,2.36213 c -0.04657,-0.0466 -0.08467,-1.14518 -0.08467,-2.44134 v -2.35668 h 0.337659 c 0.292003,0 0.515272,0.2239 1.651283,1.65598 0.722496,0.91079 1.345875,1.62373 1.385288,1.58432 0.03943,-0.0394 0.07166,-0.7846 0.07166,-1.65598 v -1.58432 h 0.356472 0.356471 l 0.0243,1.90118 c 0.01338,1.04566 0.02672,2.12844 0.02969,2.40619 0.0051,0.48014 -0.01168,0.505 -0.341818,0.505 -0.30293,0 -0.515147,-0.20801 -1.663535,-1.63052 l -1.316311,-1.63053 -0.05942,1.63053 -0.05941,1.63052 -0.301507,0.0352 c -0.165829,0.0194 -0.339608,-0.003 -0.386175,-0.0495 z m 6.297665,0 c -0.04657,-0.0466 -0.08467,-1.14518 -0.08467,-2.44134 v -2.35668 h 0.345626 c 0.361969,0 0.394546,0.0351 2.282729,2.46062 0.367273,0.47179 0.701464,0.82409 0.742651,0.78291 0.04118,-0.0412 0.07489,-0.78783 0.07489,-1.65921 v -1.58432 h 0.356472 0.356471 l 0.0243,1.90118 c 0.01338,1.04566 0.02672,2.12844 0.02973,2.40619 0.0049,0.46132 -0.02223,0.50819 -0.313983,0.54188 -0.28312,0.0327 -0.471984,-0.15387 -1.66353,-1.64331 l -1.344155,-1.68021 -0.05941,1.64332 -0.05941,1.64332 -0.301507,0.0352 c -0.165829,0.0194 -0.339608,-0.003 -0.386179,-0.0495 z m 7.336905,-0.14959 c -0.945679,-0.42956 -1.424076,-1.32724 -1.33842,-2.51144 0.143613,-1.98546 2.324734,-2.90219 3.779016,-1.58833 0.620573,0.56065 0.885361,1.2762 0.795272,2.1491 -0.169588,1.64315 -1.778132,2.61283 -3.235868,1.95067 z m 1.705306,-0.73029 c 0.739723,-0.45099 0.978957,-1.73511 0.466577,-2.50439 -0.346335,-0.51997 -1.034125,-0.86549 -1.51333,-0.76024 -0.487155,0.107 -1.037282,0.68665 -1.190029,1.25391 -0.277331,1.02994 0.475034,2.25186 1.385979,2.25097 0.251612,-2.4e-4 0.634473,-0.10835 0.850803,-0.24025 z m 4.547535,0.68629 c -0.0568,-0.14705 -0.483243,-1.2249 -0.947651,-2.39522 -0.464412,-1.17034 -0.84438,-2.14618 -0.84438,-2.16854 0,-0.0224 0.180766,-0.0407 0.401704,-0.0407 h 0.401705 l 0.612309,1.63383 c 0.883488,2.35741 0.778534,2.15255 0.94422,1.84296 0.07691,-0.1437 0.347023,-0.83772 0.600255,-1.54227 0.6922,-1.92584 0.697387,-1.93452 1.156567,-1.93452 h 0.395076 l -0.240214,0.62382 c -0.132115,0.34311 -0.570332,1.43926 -0.973815,2.43589 -0.701967,1.73393 -0.748022,1.81207 -1.068054,1.81207 -0.237029,0 -0.364537,-0.0779 -0.437722,-0.26735 z m 3.555886,0.12635 c 4.49e-4,-0.0858 0.314099,-0.95812 0.696964,-1.93842 1.174791,-3.00797 1.060285,-2.7926 1.483627,-2.79052 l 0.373277,0.002 0.891176,2.27662 c 0.49015,1.25214 0.908467,2.34746 0.929597,2.43405 0.02627,0.10768 -0.09106,0.15743 -0.371292,0.15743 -0.386606,0 -0.422336,-0.0352 -0.633618,-0.62383 l -0.223907,-0.62383 -0.961586,-0.0342 -0.961582,-0.0342 -0.237959,0.62835 c -0.210744,0.55648 -0.280709,0.6326 -0.611752,0.66558 -0.24863,0.0247 -0.373506,-0.0151 -0.372945,-0.11883 z m 2.850928,-1.90577 c 0,-0.21053 -0.618412,-1.75559 -0.702677,-1.75559 -0.107846,0 -0.714744,1.75121 -0.634651,1.83131 0.14129,0.14129 1.337328,0.0736 1.337328,-0.0757 z m 3.894249,-0.055 -0.03247,-2.11645 -0.802058,-0.0351 c -0.762793,-0.0334 -0.802062,-0.0494 -0.802062,-0.32676 v -0.29163 h 2.020003 2.020006 v 0.29706 c 0,0.28629 -0.02789,0.29706 -0.769614,0.29706 h -0.769611 l -0.03243,2.10912 -0.03247,2.10913 -0.383408,0.037 -0.383404,0.037 z m 4.15162,2.02804 c -0.04657,-0.0466 -0.08467,-1.14518 -0.08467,-2.44134 v -2.35668 h 0.418343 0.418344 l -0.03216,2.40618 -0.03216,2.40619 -0.301506,0.0352 c -0.16583,0.0194 -0.339608,-0.003 -0.38618,-0.0495 z m 4.202286,-0.19884 c -0.057,-0.14993 -0.450513,-1.12577 -0.874466,-2.16853 -1.05331,-2.59076 -1.018711,-2.43065 -0.525238,-2.43065 0.392678,0 0.417998,0.0279 0.675605,0.74265 0.721117,2.00099 1.115074,2.94387 1.193959,2.8576 0.04775,-0.0522 0.365606,-0.84354 0.706336,-1.75848 0.340731,-0.91494 0.661086,-1.70753 0.711901,-1.7613 0.05081,-0.0538 0.252995,-0.0805 0.449296,-0.0594 l 0.356907,0.0384 -0.907806,2.25766 c -0.499299,1.24171 -0.95035,2.32449 -1.002342,2.40618 -0.163692,0.25719 -0.669637,0.17714 -0.784152,-0.12407 z m 4.346096,-0.52622 c -0.04181,-0.44292 -0.07643,-1.54053 -0.07689,-2.43913 l -8.98e-4,-1.63383 h 1.663535 1.663531 v 0.2929 c 0,0.29007 -0.01177,0.29324 -1.217945,0.32677 l -1.217945,0.0339 -0.03566,0.68324 -0.03561,0.68324 h 1.075348 c 1.063279,0 1.075342,0.003 1.075342,0.29243 0,0.2858 -0.02358,0.29322 -1.039707,0.32677 l -1.039711,0.0343 v 0.71294 0.71294 l 1.284856,0.0338 1.284851,0.0338 -0.03719,0.32267 -0.03718,0.32267 -1.616339,0.033 -1.616344,0.033 z m 8.89077,0.65029 c -0.03004,-0.0817 -0.06848,-1.0308 -0.08539,-2.10912 l -0.03072,-1.9606 -0.74265,-0.0354 c -0.69947,-0.0333 -0.742647,-0.0523 -0.742647,-0.32677 v -0.29139 h 2.020003 2.020006 v 0.29163 c 0,0.27735 -0.03925,0.29335 -0.802062,0.32676 l -0.802062,0.0351 -0.03242,2.10912 -0.03242,2.10913 h -0.357459 c -0.196602,0 -0.382048,-0.0668 -0.412101,-0.14853 z m 4.102115,-2.28736 v -2.43589 h 1.663531 1.663535 v 0.29304 c 0,0.29124 -0.0079,0.29325 -1.277356,0.32677 l -1.277356,0.0337 v 0.65354 0.65353 l 1.069415,0.0594 c 0.991703,0.0551 1.072127,0.0785 1.106784,0.3222 0.03597,0.25302 -0.0036,0.26407 -1.069415,0.29707 l -1.106784,0.0343 v 0.71294 0.71295 l 1.277356,0.0337 1.277356,0.0337 v 0.35245 0.35246 h -1.663535 -1.663531 z m 6.048995,2.15941 c -0.28803,-0.15206 -0.684103,-0.50422 -0.88016,-0.78259 -0.321873,-0.45699 -0.356472,-0.59549 -0.356472,-1.42692 0,-0.82532 0.0362,-0.97306 0.349174,-1.42467 0.459638,-0.66325 1.123948,-0.99846 1.981238,-0.99974 1.01441,-0.001 2.02238,0.71899 1.64389,1.17505 -0.20357,0.24528 -0.41749,0.21135 -0.74738,-0.11855 -0.647,-0.647 -1.81496,-0.43063 -2.24644,0.41616 -0.257233,0.50483 -0.268959,1.43072 -0.0241,1.90418 0.24181,0.46762 0.83677,0.81962 1.38627,0.82017 0.32587,3.3e-4 0.55276,-0.0973 0.86655,-0.37279 0.37205,-0.32666 0.46152,-0.35663 0.71708,-0.24019 0.35771,0.16298 0.36332,0.2544 0.0371,0.60455 -0.66389,0.7126 -1.85274,0.90676 -2.72674,0.44534 z m 4.76397,-2.15941 v -2.43589 h 0.35167 0.35167 l 0.0345,0.9803 0.0345,0.9803 1.21794,0.0339 1.21795,0.0339 v -1.01416 -1.01416 h 0.41588 0.41588 l -8.9e-4,1.63383 c -4.5e-4,0.8986 -0.0349,1.99475 -0.0766,2.43589 -0.0742,0.78525 -0.0829,0.80206 -0.41504,0.80206 h -0.33929 v -1.07357 -1.07357 l -1.21795,0.0339 -1.21795,0.0339 -0.0344,1.03971 -0.0343,1.03971 H 105.62185 105.27 Z m 9.50514,2.32487 c -0.1638,-0.0498 -0.47178,-0.18056 -0.68439,-0.2905 -0.37705,-0.19498 -0.38226,-0.20825 -0.21138,-0.53869 l 0.17519,-0.33879 0.55905,0.28303 c 0.96736,0.48974 2.06349,0.32976 2.06349,-0.30116 0,-0.33398 -0.34942,-0.56207 -1.30174,-0.84973 -1.12832,-0.34081 -1.43121,-0.6291 -1.43121,-1.36218 0,-0.44506 0.0641,-0.61331 0.33769,-0.88695 0.60148,-0.60148 1.57744,-0.70544 2.6032,-0.27731 0.41317,0.17245 0.47504,0.34752 0.23756,0.67228 -0.13934,0.19056 -0.17797,0.18828 -0.61924,-0.0367 -0.82427,-0.42023 -1.72744,-0.2101 -1.72744,0.40191 0,0.37613 0.3115,0.62139 1.01,0.79522 1.35468,0.33713 1.72294,0.65221 1.72294,1.47412 0,0.58677 -0.25718,0.98064 -0.78407,1.20078 -0.42155,0.17614 -1.45505,0.20512 -1.94965,0.0547 z m 5.6449,-0.11356 c -0.88355,-0.40779 -1.36647,-1.20937 -1.36647,-2.2682 0,-1.58186 1.42074,-2.76433 2.85675,-2.37766 0.63963,0.17223 1.35891,0.83839 1.60717,1.48844 0.77609,2.03215 -1.19098,4.03731 -3.09745,3.15742 z m 1.7004,-0.72906 c 0.9786,-0.59663 0.97406,-2.3755 -0.008,-3.01877 -1.0482,-0.68681 -2.22741,0.11305 -2.22741,1.51086 0,1.3834 1.15797,2.16462 2.2351,1.50791 z m 3.42883,0.87443 c -0.0436,-0.0436 -0.0792,-1.13973 -0.0792,-2.43589 v -2.35668 h 0.41589 0.41588 v 2.07942 2.07942 h 1.30706 1.30706 v 0.35647 0.35647 h -1.64373 c -0.90405,0 -1.67937,-0.0357 -1.72294,-0.0792 z m 5.74316,-0.18044 c -0.38868,-0.19994 -0.60773,-0.41985 -0.80206,-0.80524 -0.2387,-0.47334 -0.26736,-0.7058 -0.26736,-2.16853 v -1.63836 h 0.34271 0.34271 l 0.0533,1.57442 c 0.0584,1.72441 0.18092,2.14441 0.70436,2.4151 0.65483,0.33862 1.34551,0.15117 1.71201,-0.46463 0.1807,-0.30362 0.23291,-0.67931 0.27105,-1.95047 l 0.0472,-1.57442 h 0.3427 0.34272 l -0.003,1.63383 c -0.003,1.86426 -0.15973,2.4048 -0.83725,2.88724 -0.57782,0.41144 -1.55024,0.4508 -2.24957,0.0911 z m 6.3751,-0.54241 c -0.0417,-0.44114 -0.0761,-1.40361 -0.0766,-2.13883 l -9e-4,-1.33677 h -0.77236 c -0.74462,0 -0.77235,-0.0107 -0.77235,-0.29706 v -0.29706 h 2.02001 2.02 v 0.29163 c 0,0.27736 -0.0393,0.29335 -0.80206,0.32677 l -0.80206,0.0351 -0.0324,2.10912 -0.0324,2.10912 h -0.33655 c -0.32879,0 -0.33829,-0.0185 -0.41229,-0.80206 z m 4.0814,-1.63383 v -2.43589 h 0.41588 0.41589 l -9e-4,1.63383 c -4.5e-4,0.8986 -0.0349,1.99475 -0.0766,2.43589 -0.0742,0.78525 -0.0829,0.80206 -0.41504,0.80206 h -0.33929 z m 3.98059,2.21131 c -0.89341,-0.41234 -1.36849,-1.21242 -1.36369,-2.29661 0.005,-1.19077 0.82648,-2.18992 1.97739,-2.40583 0.9371,-0.1758 2.10371,0.54988 2.48375,1.54502 0.77609,2.03215 -1.19099,4.03731 -3.09745,3.15742 z m 1.7004,-0.72906 c 0.52173,-0.31809 0.77515,-0.943 0.70848,-1.74701 -0.0558,-0.67344 -0.3376,-1.09279 -0.94738,-1.41006 -0.41282,-0.21479 -0.62125,-0.21032 -1.1149,0.0239 -0.8196,0.38893 -1.17538,1.45808 -0.7815,2.34849 0.41668,0.94199 1.32797,1.27686 2.1353,0.78465 z m 3.42884,0.87443 c -0.0436,-0.0436 -0.0792,-1.13973 -0.0792,-2.43589 v -2.35668 h 0.35364 c 0.31281,0 0.50832,0.19482 1.69324,1.68721 l 1.33959,1.68721 0.033,-1.68721 0.033,-1.68721 h 0.41509 0.41508 l -0.0322,2.40618 -0.0322,2.40619 -0.31175,0.0361 c -0.27296,0.0317 -0.47146,-0.16426 -1.59519,-1.57441 -0.70589,-0.88581 -1.32757,-1.61057 -1.38149,-1.61057 -0.0539,0 -0.0981,0.72186 -0.0981,1.60412 v 1.60413 h -0.33667 c -0.18516,0 -0.37231,-0.0357 -0.41588,-0.0792 z m 6.60462,-0.17293 c -0.63513,-0.24411 -0.72942,-0.39793 -0.50314,-0.82075 0.11665,-0.21796 0.13911,-0.21571 0.67123,0.0672 0.58524,0.31117 1.4209,0.38868 1.83002,0.16973 0.14472,-0.0775 0.22984,-0.24846 0.22984,-0.46176 0,-0.37984 -0.25021,-0.53585 -1.46362,-0.91261 -0.86437,-0.26837 -1.26933,-0.65067 -1.26933,-1.19827 0,-1.11541 0.99189,-1.7383 2.32678,-1.46118 0.35002,0.0727 0.74665,0.22224 0.88141,0.3324 0.22586,0.18463 0.23067,0.22062 0.0616,0.46027 l -0.18346,0.25997 -0.54966,-0.24313 c -0.85873,-0.37986 -1.70486,-0.15755 -1.70486,0.44793 0,0.35659 0.31794,0.5573 1.37399,0.86741 1.01416,0.2978 1.38406,0.639 1.40119,1.29243 0.0329,1.25332 -1.46052,1.8312 -3.10194,1.20034 z m -48.14616,-11.98895 c -1.4473,-0.20267 -3.33091,-0.89668 -4.54076,-1.67304 l -0.55995,-0.35931 0.19998,-0.43832 c 0.10999,-0.24107 0.45682,-0.93754 0.77075,-1.5477 0.56204,-1.09246 0.57475,-1.1065 0.83176,-0.91949 0.87267,0.63496 1.21059,0.82581 2.11134,1.19246 2.33936,0.95222 4.57143,0.7839 4.90227,-0.3697 0.25721,-0.89684 -0.51638,-1.44972 -3.04294,-2.17477 -2.74398,-0.78744 -3.8118,-1.34809 -4.47519,-2.34962 -0.68149,-1.02886 -0.77998,-2.71711 -0.24088,-4.12887 0.52242,-1.36805 2.07005,-2.56755 3.76757,-2.92009 1.03522,-0.215 3.47194,-0.0845 4.36827,0.234 0.86971,0.309 2.61531,1.16269 2.77779,1.35847 0.0831,0.10012 -0.11178,0.57572 -0.65353,1.59503 l -0.77192,1.45238 -0.43852,-0.35124 c -0.87968,-0.70458 -2.60161,-1.31214 -3.71882,-1.31214 -1.21844,0 -1.95797,0.43533 -2.08665,1.22831 -0.14059,0.86631 0.58782,1.38678 2.68471,1.91832 2.47398,0.62712 3.80393,1.23447 4.57704,2.09021 0.74928,0.82936 0.94997,1.41516 0.95372,2.78377 0.003,1.1002 -0.0257,1.24933 -0.38719,2.01276 -0.83901,1.77177 -2.41803,2.62276 -5.07546,2.73537 -0.65353,0.0277 -1.53256,0.002 -1.95339,-0.0568 z m -73.677986,-7.95899 v -7.84238 h 1.720939 1.720938 l 0.03171,3.05972 0.03171,3.05971 3.117117,0.0317 3.117113,0.0317 0.03171,-3.06168 0.03171,-3.06168 1.693243,-0.033 1.693239,-0.033 v 7.84563 7.84564 H 47.105836 45.38289 v -3.21021 -3.21022 l -3.119125,0.0317 -3.119125,0.0317 -0.03166,3.17854 -0.03166,3.17854 h -1.721006 -1.721006 z m 15.392815,7.57816 c 0.07561,-0.24777 1.967885,-5.23005 2.787924,-7.34051 0.190453,-0.49015 0.884862,-2.30816 1.543137,-4.04002 0.658269,-1.73185 1.269285,-3.33598 1.357811,-3.56471 l 0.160957,-0.41589 1.488733,-0.0332 1.488729,-0.0332 0.381253,0.98377 c 0.209688,0.54108 0.476991,1.25113 0.594003,1.57789 0.117013,0.32677 0.490299,1.31598 0.82952,2.19824 0.665388,1.73057 1.26669,3.30903 2.082185,5.4659 0.636286,1.68287 1.897479,4.9757 2.013867,5.25796 0.0795,0.19279 -0.04873,0.20794 -1.760729,0.20794 -1.811576,0 -1.848011,-0.005 -1.927712,-0.26736 -0.04469,-0.14704 -0.349156,-0.9769 -0.676616,-1.84413 l -0.595378,-1.57678 -2.441755,0.0321 -2.441755,0.0321 -0.211188,0.5347 c -0.116155,0.29409 -0.418344,1.09615 -0.671527,1.78236 l -0.460339,1.24765 -1.811837,0.0328 -1.811836,0.0328 z m 8.939493,-6.30081 c -0.02861,-0.0817 -0.392305,-1.13535 -0.808228,-2.34147 l -0.756227,-2.19294 -0.169979,0.41058 c -0.182653,0.44119 -1.566054,4.18691 -1.566054,4.24027 0,0.0177 0.754309,0.0321 1.676245,0.0321 1.289517,0 1.664249,-0.0343 1.624243,-0.14853 z m 7.897801,-1.24765 0.03054,-7.81267 3.445893,-0.0341 c 2.14266,-0.0212 3.737771,0.0157 4.21765,0.0977 3.317433,0.56646 5.27382,4.43529 3.817045,7.54834 -0.329728,0.70462 -1.182497,1.70549 -1.770861,2.07842 l -0.271479,0.17207 1.728546,2.85177 1.728547,2.85177 -1.868185,0.0328 c -1.0275,0.018 -1.926284,0.0105 -1.9973,-0.0167 -0.07102,-0.0273 -0.627094,-0.87082 -1.235734,-1.87461 -0.608635,-1.00379 -1.288448,-2.1058 -1.510689,-2.4489 l -0.40408,-0.62383 h -1.187025 -1.187024 v 2.4953 2.49531 h -1.783211 -1.783211 z m 7.814453,-0.83444 c 0.759901,-0.7599 0.901762,-1.73842 0.398454,-2.74843 -0.496258,-0.99586 -0.719334,-1.07999 -2.864976,-1.08052 l -1.812065,-4.4e-4 v 2.13883 2.13883 h 1.91516 1.91516 z m 7.36615,0.80474 v -7.84238 h 3.54289 c 2.048151,0 3.838341,0.0546 4.243176,0.12946 1.807121,0.33406 3.410019,1.8042 3.980337,3.65068 0.601257,1.94665 -0.02726,4.4046 -1.397813,5.46662 -0.226107,0.17521 -0.517356,0.40035 -0.647213,0.5003 -0.229125,0.17637 -0.188203,0.26036 1.384745,2.84186 0.891464,1.46306 1.673312,2.75814 1.737438,2.87797 0.11095,0.20731 0.02003,0.21767 -1.87788,0.21398 l -1.99448,-0.004 -1.485298,-2.49046 -1.485301,-2.49046 -1.247648,0.0287 -1.247653,0.0288 -0.03211,2.46559 -0.03211,2.4656 H 84.77061 83.050075 Z m 7.718697,-0.66769 c 0.541024,-0.45524 0.756905,-0.95376 0.765694,-1.7682 0.0092,-0.84808 -0.354621,-1.59938 -0.953678,-1.96962 -0.342509,-0.21168 -0.560483,-0.23168 -2.202767,-0.20207 l -1.822646,0.0329 -0.03243,2.10912 -0.03243,2.10912 h 1.954218 c 1.934845,0 1.957888,-0.003 2.324074,-0.31121 z m 7.519602,0.70057 0.03054,-7.81585 1.690165,-0.033 c 1.67274,-0.0326 1.69084,-0.0302 1.75574,0.23765 0.0361,0.14883 0.0508,3.66599 0.0328,7.81591 l -0.0328,7.54532 -1.75351,0.0329 -1.753504,0.0329 z m 25.755935,7.75063 c 0,-0.0514 2.18502,-3.20084 5.4412,-7.84292 0.5501,-0.78424 1.02568,-1.48921 1.05685,-1.5666 0.0312,-0.0774 -1.47161,-2.31315 -3.33951,-4.96837 -1.86791,-2.65521 -3.39619,-4.85217 -3.39619,-4.88212 0,-0.0299 1.05158,-0.04 2.33684,-0.0222 l 2.33685,0.0322 2.20816,3.29583 c 1.21449,1.8127 2.23765,3.29651 2.27369,3.29736 0.036,9e-4 1.04918,-1.47464 2.25142,-3.27886 1.20226,-1.80422 2.24384,-3.30262 2.31462,-3.32978 0.0708,-0.0272 1.12518,-0.0348 2.34308,-0.017 l 2.21437,0.0324 -2.25423,3.20824 c -3.92971,5.5928 -4.55883,6.50648 -4.53624,6.58803 0.0121,0.0438 1.40595,2.05501 3.09737,4.46935 1.69142,2.41435 3.17145,4.53676 3.28897,4.71649 l 0.21365,0.32676 h -2.32773 -2.32774 l -2.1195,-3.21257 c -1.96947,-2.98517 -2.13248,-3.19754 -2.30305,-3.0003 -0.10095,0.11675 -1.08057,1.5624 -2.17693,3.21257 l -1.99338,3.0003 h -2.30129 c -1.2657,0 -2.30128,-0.0265 -2.30128,-0.0589 z m 20.49238,-0.0897 c -0.0312,-0.0817 -0.0428,-4.42619 -0.026,-9.65444 l 0.0307,-9.5059 4.74749,-0.0311 c 5.22603,-0.0342 5.37159,-0.0189 6.74584,0.71018 1.87639,0.99548 3.2669,3.22824 3.38812,5.44034 0.0665,1.21302 -0.15537,2.28381 -0.69435,3.35153 -0.49843,0.98738 -0.94888,1.52618 -1.78491,2.135 -0.38392,0.27958 -0.69804,0.52719 -0.69804,0.55027 0,0.0366 1.3175,2.22573 3.5897,5.96441 l 0.68605,1.12882 -2.33899,0.0323 c -1.77556,0.0245 -2.3718,-0.004 -2.47523,-0.11882 -0.12741,-0.14132 -1.05969,-1.65304 -2.96938,-4.81495 l -0.80737,-1.33678 h -1.58534 -1.58534 v 3.14884 3.14883 h -2.08315 c -1.55707,0 -2.09746,-0.0375 -2.13982,-0.14853 z m 9.26114,-10.11713 c 0.76946,-0.3215 1.38055,-1.48174 1.37571,-2.61196 -0.005,-1.00167 -0.63182,-2.09476 -1.44708,-2.52067 -0.2443,-0.12763 -0.87515,-0.16763 -2.64383,-0.16763 h -2.32297 v 2.73295 2.73295 h 2.32088 c 1.71568,0 2.42425,-0.0432 2.71729,-0.16564 z M 35.282882,157.45584 v -2.5657 l 1.524724,-2.09814 c 2.262829,-3.11381 5.576867,-7.6904 10.575426,-14.60434 3.081634,-4.26247 4.551092,-6.29218 11.836297,-16.34905 1.554741,-2.14624 2.850389,-3.99246 2.879221,-4.10272 0.03238,-0.12383 -0.503129,-0.94868 -1.400858,-2.15776 -0.799304,-1.07651 -2.282792,-3.08018 -3.296635,-4.45259 -1.013848,-1.37242 -2.616791,-3.53799 -3.562097,-4.81237 -0.945307,-1.27439 -2.432234,-3.27954 -3.304279,-4.4559 -0.872045,-1.17635 -2.299113,-3.101298 -3.171252,-4.277654 C 46.491285,96.403259 45.065907,94.478313 44.195923,93.301957 42.2185,90.628171 40.041187,87.69307 37.364631,84.093109 l -2.076108,-2.79236 -0.0018,-2.13883 c -8.98e-4,-1.176356 0.03211,-2.499756 0.07377,-2.94089 l 0.07575,-0.802061 h 3.405618 3.405622 l 1.173619,1.633828 c 0.645488,0.898605 1.637505,2.275477 2.204483,3.059714 1.064968,1.473056 5.531014,7.678232 7.183762,9.981203 0.515915,0.718885 1.631982,2.269536 2.480153,3.445892 0.848166,1.176356 1.790823,2.486389 2.09479,2.911184 0.303963,0.424795 1.266439,1.761563 2.13883,2.970596 0.872386,1.209035 1.834861,2.545805 2.138829,2.970595 0.303963,0.4248 1.266438,1.76156 2.138829,2.9706 0.872386,1.20903 1.834862,2.5458 2.138829,2.97059 0.303963,0.4248 1.266793,1.76157 2.139619,2.9706 0.872827,1.20903 2.084911,2.89336 2.693524,3.74295 0.608609,0.84959 1.509073,2.1047 2.001032,2.78915 0.491956,0.68444 0.868682,1.31162 0.837173,1.39373 -0.03153,0.0821 -0.345567,0.53806 -0.697907,1.01322 -0.549296,0.74076 -4.208462,5.81843 -9.05704,12.56806 -1.675495,2.33244 -4.384948,6.0961 -7.185447,9.98121 -1.201265,1.6665 -2.779225,3.8588 -3.506575,4.87177 -0.72735,1.01298 -2.865209,3.9806 -4.750796,6.59473 -1.885592,2.61413 -3.589654,4.9802 -3.786808,5.25796 l -0.358466,0.505 h -4.49243 -4.49243 z m 10.48435,1.82306 c 0.286839,-0.40846 1.236039,-1.73186 2.109332,-2.94089 0.873294,-1.20903 1.83633,-2.5458 2.140078,-2.9706 0.303747,-0.4248 1.533966,-2.13586 2.733821,-3.80237 1.19985,-1.6665 2.411692,-3.35083 2.692976,-3.74294 0.281288,-0.39212 0.980053,-1.36261 1.552819,-2.15664 0.572761,-0.79404 1.553044,-2.15754 2.178403,-3.03001 0.625356,-0.87248 1.831234,-2.54879 2.679728,-3.72514 2.313277,-3.20715 3.609109,-5.00735 5.260253,-7.30767 1.656843,-2.30826 5.210372,-7.23872 6.325217,-8.77613 0.396109,-0.54625 0.762901,-0.94728 0.815095,-0.89119 0.0522,0.0561 1.61395,2.21409 3.470566,4.79554 5.453132,7.58207 10.396888,14.44972 11.504687,15.98181 0.567054,0.78424 2.492772,3.45777 4.279374,5.94119 1.786601,2.48342 3.712087,5.15696 4.278857,5.9412 0.566766,0.78423 1.876251,2.60224 2.909962,4.04001 1.0337,1.43777 2.01033,2.7879 2.17028,3.0003 l 0.29082,0.38618 h -4.695785 -4.695782 l -1.299756,-1.81204 c -0.714866,-0.99663 -2.547419,-3.54986 -4.072336,-5.67384 -1.524921,-2.12397 -3.021315,-4.20933 -3.325323,-4.63413 -0.304008,-0.42479 -1.934984,-2.6973 -3.624387,-5.05001 -1.689403,-2.35272 -3.656726,-5.09756 -4.371821,-6.09965 -0.715098,-1.0021 -1.338496,-1.77742 -1.385328,-1.72294 -0.04683,0.0545 -1.287303,1.75663 -2.756608,3.78258 -1.469305,2.02595 -3.892943,5.36786 -5.385862,7.42649 -1.492923,2.05862 -2.91143,4.0103 -3.152245,4.33707 -0.240811,0.32677 -1.443967,1.98436 -2.673669,3.68354 -1.229706,1.69918 -2.431951,3.35677 -2.671652,3.68354 -0.239698,0.32677 -0.672242,0.92676 -0.961205,1.33331 l -0.525391,0.73918 -6.158319,0.004 -6.158323,0.004 z m 57.412868,-0.53471 c -0.89066,-1.23311 -1.82543,-2.53024 -4.088815,-5.67384 -0.588179,-0.81688 -1.550655,-2.15365 -2.138829,-2.97057 -0.588179,-0.81691 -1.550655,-2.15368 -2.138829,-2.97059 -2.722814,-3.78168 -3.263429,-4.53157 -4.711519,-6.53531 -0.850142,-1.17636 -2.311417,-3.20825 -3.247279,-4.51531 -0.935862,-1.30706 -1.89796,-2.64383 -2.137998,-2.9706 -0.240034,-0.32676 -0.722729,-0.99515 -1.072648,-1.48529 -0.349919,-0.49015 -0.831703,-1.15854 -1.070632,-1.4853 -0.238925,-0.32677 -0.924576,-1.27587 -1.523659,-2.10913 -1.487601,-2.06906 -2.897315,-4.02409 -4.752714,-6.5912 -0.860629,-1.19076 -1.564783,-2.22227 -1.564783,-2.29226 0,-0.10061 7.693708,-10.85541 15.703425,-21.951322 2.539339,-3.517762 3.275532,-4.539504 5.329576,-7.396784 1.198022,-1.666505 2.650329,-3.685025 3.227348,-4.485601 0.577023,-0.800575 1.539936,-2.137343 2.139826,-2.970596 0.59987,-0.833252 1.49645,-2.076447 1.99238,-2.762654 0.49593,-0.686208 1.35164,-1.875932 1.90158,-2.643831 l 0.99988,-1.39618 h 3.48364 3.48363 v 3.822713 c 0,3.059945 -0.0324,3.860144 -0.16227,4.010305 -0.0893,0.103175 -0.96156,1.337212 -1.93848,2.742304 -2.35647,3.389296 -8.30011,11.887415 -9.30789,13.308271 -3.579607,5.046855 -12.043738,17.210435 -12.087548,17.370705 -0.03377,0.1236 0.444046,0.8993 1.244334,2.02 0.714551,1.00064 4.150563,5.80292 7.635586,10.67173 3.485018,4.8688 7.790138,10.88426 9.566928,13.36768 1.77678,2.48342 4.25466,5.94639 5.5064,7.69549 l 2.27588,3.18018 v 3.14719 3.14719 h -5.81194 -5.81196 z m 32.7326,-0.89118 c -4.79288,-6.43755 -9.6012,-12.90037 -11.89039,-15.98181 -0.8375,-1.12734 -2.22781,-2.99881 -3.08957,-4.15883 -0.86177,-1.16002 -2.40207,-3.23201 -3.42288,-4.60443 -1.02082,-1.37241 -2.33182,-3.13695 -2.91334,-3.92118 -0.58152,-0.78424 -2.37176,-3.19042 -3.9783,-5.34708 -5.04126,-6.76747 -5.8817,-7.9062 -5.92241,-8.02442 -0.0251,-0.073 1.93544,-0.11501 5.37073,-0.11501 h 5.41035 l 0.2841,0.38618 c 0.15627,0.2124 1.21077,1.66947 2.34335,3.23795 1.13258,1.56847 2.60331,3.60036 3.26828,4.5153 0.66498,0.91495 2.3491,3.24092 3.74251,5.16884 1.3934,1.92792 4.00413,5.53719 5.80162,8.02061 1.79749,2.48342 3.96358,5.47778 4.81352,6.65414 0.84994,1.17635 1.95428,2.70027 2.4541,3.38647 0.49982,0.68621 2.18373,3.01219 3.74203,5.16884 1.5583,2.15666 3.43917,4.75684 4.17973,5.77819 0.74055,1.02135 1.34646,1.89025 1.34646,1.93089 0,0.0406 -2.23321,0.0739 -4.96269,0.0739 h -4.96268 z m 12.10165,1.30707 c -0.34971,-0.47379 -3.56965,-4.89849 -7.15543,-9.83265 -11.89968,-16.37437 -14.11617,-19.42259 -14.55878,-20.02182 -0.24135,-0.32676 -2.16549,-2.97357 -4.27585,-5.88178 -2.11037,-2.90821 -4.03354,-5.55501 -4.27372,-5.88178 -1.31483,-1.78887 -1.54933,-2.1439 -1.50033,-2.27158 0.0296,-0.0771 0.47574,-0.72042 0.99146,-1.4296 0.51572,-0.70918 1.42848,-1.97117 2.02837,-2.80442 0.59987,-0.83326 1.57192,-2.18339 2.1601,-3.00031 0.58818,-0.81691 1.55065,-2.15368 2.13883,-2.97059 0.58818,-0.81692 1.55065,-2.15368 2.13883,-2.9706 0.58818,-0.81691 1.55065,-2.153682 2.13883,-2.970595 0.58817,-0.816913 1.55065,-2.153682 2.13882,-2.970596 0.58818,-0.816914 1.55066,-2.153682 2.13883,-2.970596 0.58818,-0.816914 1.55066,-2.153682 2.13883,-2.970596 0.58818,-0.816914 1.55066,-2.153682 2.13883,-2.970596 1.30414,-1.811303 2.82386,-3.921526 4.1931,-5.822369 0.56491,-0.784237 1.74177,-2.415094 2.61523,-3.624127 l 1.58813,-2.198241 3.34709,-0.03156 3.34708,-0.03156 v 4.051229 4.05123 l -2.81267,4.000936 c -1.54697,2.200515 -3.24904,4.61585 -3.78238,5.367411 -0.53335,0.751561 -2.1916,3.104273 -3.685,5.228249 -2.79088,3.969281 -6.03606,8.577571 -8.81521,12.517921 -0.88593,1.25611 -1.54409,2.29975 -1.4987,2.37648 0.0445,0.0752 0.51645,0.77847 1.04873,1.5627 0.53229,0.78424 2.02868,3.00327 3.32531,4.93119 1.29662,1.92791 3.00783,4.46777 3.80268,5.64413 0.79486,1.17636 2.45256,3.63601 3.6838,5.4659 1.23123,1.82989 2.88872,4.28954 3.68332,5.4659 0.7946,1.17635 2.65043,3.93009 4.12407,6.11942 1.47363,2.18933 3.54526,5.2639 4.60362,6.83237 1.05836,1.56848 2.59862,3.85725 3.42281,5.08617 l 1.49853,2.23438 -1.77296,1.77592 -1.77297,1.77592 h -3.94769 -3.9477 z M 73.687141,117.8094 c -0.252244,-0.3431 -2.055112,-2.84286 -4.006367,-5.55501 -1.951254,-2.71215 -4.704867,-6.53531 -6.119135,-8.49591 -3.316377,-4.597459 -7.418784,-10.291372 -13.783437,-19.130634 -1.458769,-2.025947 -3.525716,-4.89404 -4.593217,-6.373542 -1.067497,-1.479501 -1.940907,-2.722696 -1.940907,-2.762654 0,-0.03996 3.553079,-0.07265 7.895731,-0.07265 h 7.895731 l 1.529381,2.227947 c 1.782793,2.59711 3.790284,5.533521 6.206278,9.078092 0.947619,1.390279 2.472486,3.625992 3.388588,4.968249 0.916101,1.342257 2.353552,3.456412 3.194335,4.698121 0.840783,1.241709 1.61642,2.351 1.723633,2.46509 0.182783,0.1945 0.655724,-0.457625 7.583361,-10.456498 4.063632,-5.865165 7.727625,-11.145172 8.1422,-11.733351 l 0.753784,-1.069414 6.737687,-0.03069 c 3.705723,-0.01688 6.737043,0.0099 6.736263,0.05941 -9e-4,0.04955 -0.39197,0.624806 -0.86929,1.278337 -0.47732,0.653531 -1.35895,1.86999 -1.95917,2.703243 -1.89006,2.623869 -3.194384,4.435879 -4.319379,6.000604 -0.599083,0.833252 -1.285278,1.782358 -1.524876,2.109123 -0.239598,0.326766 -0.925793,1.275871 -1.524876,2.109124 -0.599088,0.833252 -1.561918,2.17002 -2.139624,2.970596 -0.577706,0.800576 -1.878442,2.605212 -2.89053,4.010304 -1.012087,1.405092 -3.38362,4.693543 -5.270074,7.307663 -1.886454,2.61413 -3.812339,5.28766 -4.279743,5.9412 -0.467407,0.65353 -1.642441,2.28439 -2.611185,3.62412 -0.96875,1.33974 -2.130643,2.95723 -2.581991,3.59442 -0.451343,0.6372 -0.841757,1.15854 -0.867585,1.15854 -0.02582,0 -0.253336,-0.28073 -0.505586,-0.62383 z M 104.676,114.8008 c 0,-0.0798 0.49243,-0.81293 1.43103,-2.13053 0.37244,-0.52282 3.04799,-4.34598 5.94566,-8.4959 2.89768,-4.14992 6.44701,-9.231452 7.8874,-11.292286 1.4404,-2.060835 4.75709,-6.806362 7.37042,-10.545617 l 4.75151,-6.798645 h 5.91994 c 4.70475,0 5.90146,0.03049 5.82991,0.14853 -0.0495,0.08169 -1.13264,1.592239 -2.40695,3.356773 -1.27431,1.764535 -3.1443,4.357865 -4.15554,5.762957 -3.55419,4.938462 -4.50389,6.257331 -6.03222,8.377081 -0.84815,1.176356 -3.33456,4.625218 -5.52535,7.664137 -2.1908,3.03892 -4.69751,6.51452 -5.57047,7.72355 -0.87296,1.20903 -2.25107,3.12062 -3.06248,4.24795 l -1.47527,2.04971 h -5.45379 c -2.99959,0 -5.4538,-0.0305 -5.4538,-0.0677 z"
       id="path1" /></g></svg>
