<?xml version="1.0" encoding="UTF-8" standalone="no"?>
<!-- Created with Inkscape (http://www.inkscape.org/) -->

<svg
   width="81.436005mm"
   height="129.40985mm"
   viewBox="0 0 81.436005 129.40985"
   version="1.1"
   id="svg1"
   inkscape:version="1.4.2 (f4327f4, 2025-05-13)"
   xmlns:inkscape="http://www.inkscape.org/namespaces/inkscape"
   xmlns:sodipodi="http://sodipodi.sourceforge.net/DTD/sodipodi-0.dtd"
   xmlns="http://www.w3.org/2000/svg"
   xmlns:svg="http://www.w3.org/2000/svg">
  <sodipodi:namedview
     id="namedview1"
     pagecolor="#ffffff"
     bordercolor="#000000"
     borderopacity="0.25"
     inkscape:showpageshadow="2"
     inkscape:pageopacity="0.0"
     inkscape:pagecheckerboard="0"
     inkscape:deskcolor="#d1d1d1"
     inkscape:document-units="mm"
     inkscape:zoom="1.6507506"
     inkscape:cx="255.94418"
     inkscape:cy="502.49869"
     inkscape:window-width="3840"
     inkscape:window-height="2071"
     inkscape:window-x="-9"
     inkscape:window-y="1193"
     inkscape:window-maximized="1"
     inkscape:current-layer="layer1" />
  <defs
     id="defs1">
    <pattern
       id="EMFhbasepattern"
       patternUnits="userSpaceOnUse"
       width="6"
       height="6"
       x="0"
       y="0" />
  </defs>
  <g
     inkscape:label="Layer 1"
     inkscape:groupmode="layer"
     id="layer1"
     transform="translate(-37.399452,-15.529007)">
    <path
       style="fill:#ffffff"
       d="m 73.634312,144.85804 c -6.0587,-0.74672 -12.71921,-3.00948 -17.681693,-6.00696 -9.304183,-5.61999 -15.749182,-14.49845 -17.718523,-24.40855 -0.380258,-1.91354 -0.472425,-3.10061 -0.472306,-6.08311 1.6e-4,-4.05536 0.389633,-6.95984 1.558139,-11.61977 3.051388,-12.16875 3.619519,-21.544447 1.910335,-31.525695 -0.407312,-2.378614 -1.316119,-6.243374 -2.551584,-10.850783 -1.83532,-6.84444 -1.702257,-12.258574 0.441062,-17.94626 2.534876,-6.726753 7.732973,-12.0156 15.562945,-15.834648 4.711589,-2.298065 9.211242,-3.626133 15.560966,-4.592803 3.814444,-0.580704 11.302405,-0.618432 15.354534,-0.07737 8.395312,1.120998 14.863643,3.406322 20.714263,7.318554 6.25694,4.183931 10.18836,9.665426 11.93456,16.640091 0.51939,2.074544 0.58087,2.704291 0.58798,6.022431 0.009,4.166809 -0.0943,4.805372 -1.81408,11.22275 -2.08623,7.784723 -2.72994,12.29262 -2.73034,19.120561 -3.8e-4,6.474172 0.60343,11.048872 2.6468,20.053192 1.49865,6.60395 1.66063,7.74858 1.67808,11.858 0.0168,3.96733 -0.29468,6.31045 -1.27575,9.5953 -1.87918,6.29191 -6.36832,12.9499 -11.72424,17.38858 -5.891691,4.88269 -12.488461,7.90047 -20.440773,9.35089 -1.843245,0.3362 -9.767516,0.5941 -11.540375,0.3756 z m 8.787625,-4.10963 c 8.758512,-0.99749 16.668192,-4.6557 22.813123,-10.55103 5.23539,-5.02274 8.47045,-10.75215 9.69978,-17.17872 0.40291,-2.1063 0.45084,-2.90536 0.35562,-5.929 -0.11613,-3.6874 -0.41395,-5.52452 -1.93963,-11.96461 -1.90172,-8.0274 -2.77589,-16.881487 -2.25787,-22.869002 0.43947,-5.079641 1.52416,-11.276247 2.66165,-15.205428 2.03664,-7.035083 2.35749,-10.017563 1.57616,-14.651323 -0.76634,-4.544836 -3.34042,-9.377192 -6.85482,-12.868679 C 103.19859,24.287676 95.991209,20.854125 87.080439,19.337924 85.2494,19.026366 80.48118,18.57742 79.003187,18.57742 h -0.710375 v 5.480804 5.480803 l 0.476437,0.127681 c 0.262041,0.07022 0.682355,0.128981 0.934033,0.130571 1.844394,0.01165 4.825371,2.216336 5.863559,4.336593 0.71662,1.463529 0.738315,1.701309 0.860394,9.43005 0.128523,8.136771 -0.05335,11.176017 -0.761321,12.722433 -1.06564,2.327665 -3.605651,4.226107 -6.141985,4.590612 l -1.125242,0.161711 -0.105875,6.291357 c -0.104251,6.194836 -0.113267,6.298751 -0.587686,6.77331 -0.462345,0.462482 -0.644885,0.484618 -4.518112,0.547911 -8.182889,0.133718 -17.252906,-1.257576 -24.82613,-3.808202 -1.414434,-0.476374 -2.746247,-0.956403 -2.959586,-1.066731 -0.358697,-0.185499 -0.379125,-0.115675 -0.271439,0.927815 0.302058,2.926968 0.342354,5.682235 0.135293,9.250922 -0.34087,5.87491 -0.899447,9.47543 -2.649087,17.07574 -1.419692,6.16703 -1.666999,8.10673 -1.525367,11.96387 0.203756,5.54901 1.634408,10.01185 4.751637,14.8225 5.869956,9.05878 15.938429,15.30153 27.14735,16.83214 2.499759,0.34135 6.89927,0.38757 9.432252,0.0991 z m -2.04894,-83.329781 c 0.99028,-0.413663 1.857175,-1.236282 2.438895,-2.314332 0.447808,-0.829883 0.457045,-1.029202 0.457045,-9.862981 v -9.015981 l -0.640848,-1.036547 c -1.781219,-2.881053 -6.383602,-3.294127 -8.598308,-0.771716 -1.250827,1.424614 -1.242657,1.352904 -1.240401,10.886986 l 0.0021,8.741489 0.50452,1.083531 c 0.590749,1.268723 1.654233,2.156998 3.053095,2.5501 1.149026,0.322893 2.898371,0.209624 4.023933,-0.260549 z"
       id="path1" />
  </g>
</svg>
