<?xml version="1.0" encoding="UTF-8" standalone="no"?>
<!-- Created with Inkscape (http://www.inkscape.org/) -->

<svg
   width="145.96561mm"
   height="137.19722mm"
   viewBox="0 0 145.96561 137.19722"
   version="1.1"
   id="svg1"
   xml:space="preserve"
   inkscape:version="1.4.2 (f4327f4, 2025-05-13)"
   xmlns:inkscape="http://www.inkscape.org/namespaces/inkscape"
   xmlns:sodipodi="http://sodipodi.sourceforge.net/DTD/sodipodi-0.dtd"
   xmlns="http://www.w3.org/2000/svg"
   xmlns:svg="http://www.w3.org/2000/svg"><sodipodi:namedview
     id="namedview1"
     pagecolor="#ffffff"
     bordercolor="#000000"
     borderopacity="0.25"
     inkscape:showpageshadow="2"
     inkscape:pageopacity="0.0"
     inkscape:pagecheckerboard="0"
     inkscape:deskcolor="#d1d1d1"
     inkscape:document-units="mm"
     inkscape:zoom="0.58362846"
     inkscape:cx="-722.20604"
     inkscape:cy="59.11295"
     inkscape:window-width="3840"
     inkscape:window-height="2071"
     inkscape:window-x="-9"
     inkscape:window-y="1193"
     inkscape:window-maximized="1"
     inkscape:current-layer="layer1" /><defs
     id="defs1" /><g
     inkscape:label="Layer 1"
     inkscape:groupmode="layer"
     id="layer1"
     transform="translate(-24.327119,-69.541794)"><path
       style="fill:#ffffff;stroke-width:0.413864"
       d="m 25.257883,206.51698 c -0.361353,-0.12401 -0.699944,-0.26687 -0.752417,-0.31748 -0.09384,-0.0905 0.266954,-1.43394 0.468072,-1.7429 0.0858,-0.13181 0.210979,-0.11934 0.824682,0.0821 0.478667,0.15714 0.997847,0.23752 1.534091,0.23752 0.709931,0 0.851927,-0.0348 1.143743,-0.28035 0.401138,-0.33754 0.529953,-0.88295 0.35022,-1.48285 -0.133756,-0.44643 -0.27063,-0.57095 -2.29873,-2.0912 -0.957094,-0.71744 -1.561841,-1.45382 -1.764262,-2.1483 -0.507439,-1.74096 0.0591,-3.29038 1.466272,-4.01003 0.582129,-0.29771 0.72893,-0.32456 1.802072,-0.32964 1.134874,-0.005 1.920301,0.13173 2.550761,0.44526 l 0.287433,0.14293 -0.267617,0.79816 c -0.147187,0.43899 -0.30736,0.83884 -0.35594,0.88857 -0.04858,0.0497 -0.349777,0.0128 -0.669326,-0.0821 -0.319549,-0.0949 -0.945411,-0.17254 -1.390807,-0.17254 -0.749053,0 -0.833825,0.024 -1.129895,0.32009 -0.650301,0.6503 -0.337167,1.3266 1.106044,2.38884 1.323451,0.97409 2.156605,1.74205 2.45325,2.2613 0.822887,1.44036 0.563526,3.40803 -0.591639,4.48855 -0.67303,0.62954 -1.077694,0.74651 -2.740228,0.79205 -1.161258,0.0318 -1.468374,0.003 -2.025779,-0.18797 z m 27.021642,-0.0959 c -1.51593,-0.76836 -2.327895,-2.38907 -2.497269,-4.98466 -0.08498,-1.30234 0.09185,-3.08351 0.393055,-3.95896 0.600563,-1.74557 1.649783,-2.7021 3.292456,-3.00159 0.789417,-0.14393 2.252407,-0.0169 2.791055,0.24234 0.348051,0.16751 0.359168,0.28684 0.117802,1.26477 l -0.129796,0.52587 -1.213905,-0.0395 c -1.659761,-0.054 -2.051889,0.17555 -2.696682,1.57854 -0.229413,0.49917 -0.248918,0.69547 -0.249663,2.51251 -8.28e-4,1.82134 0.01817,2.01215 0.248856,2.51251 0.327048,0.7093 0.734622,1.23433 1.159164,1.49321 0.420105,0.25617 1.551345,0.27806 2.204725,0.0427 0.240902,-0.0868 0.493748,-0.15854 0.561883,-0.15945 0.151487,-0.002 0.368881,0.81834 0.368881,1.39199 0,0.40081 -0.02454,0.43007 -0.520132,0.62032 -0.356242,0.13675 -0.934175,0.21629 -1.834155,0.25244 -1.304227,0.0524 -1.319102,0.0502 -1.996275,-0.29303 z m 71.391995,0.0992 c -1.10079,-0.43397 -1.96277,-1.55648 -2.39033,-3.11281 -0.2764,-1.0061 -0.33819,-3.83168 -0.10924,-4.99581 0.34318,-1.74503 1.19506,-3.04588 2.33919,-3.57208 1.06025,-0.48761 2.93096,-0.552 4.01901,-0.13832 0.28391,0.10794 0.29854,0.14467 0.23037,0.57818 -0.04,0.25461 -0.12121,0.64488 -0.18038,0.86727 l -0.10759,0.40435 -1.12653,-0.0638 c -1.68313,-0.0953 -2.16825,0.15066 -2.7405,1.38955 -0.20589,0.44575 -0.22828,0.70049 -0.2311,2.62886 -0.003,2.11217 1.9e-4,2.14236 0.30312,2.78932 0.36786,0.78563 0.55179,1.00148 1.08554,1.27389 0.50917,0.25987 1.49673,0.27321 2.21092,0.0298 0.29091,-0.0991 0.55873,-0.13539 0.60657,-0.0821 0.0471,0.0525 0.16544,0.41567 0.26297,0.80713 0.17316,0.69499 0.17203,0.71622 -0.0483,0.90066 -0.37596,0.31474 -0.96808,0.43949 -2.28865,0.48217 -1.07822,0.0349 -1.34205,0.008 -1.83506,-0.1863 z m 21.70959,-0.0303 c -1.03689,-0.48584 -1.83365,-1.54034 -2.21372,-2.92982 -0.28537,-1.0433 -0.28138,-5.02035 0.006,-5.95164 0.74603,-2.41775 2.36059,-3.52467 4.55953,-3.12592 2.3539,0.42684 3.5068,2.40055 3.50641,6.00282 -2.8e-4,2.53358 -0.48004,4.23613 -1.47248,5.22544 -0.82478,0.82218 -1.20614,0.96763 -2.63368,1.00453 -1.07274,0.0277 -1.26442,0.003 -1.75203,-0.22541 z m 2.73015,-2.18116 c 0.62573,-0.65304 0.73828,-1.07599 0.79919,-3.00317 0.0846,-2.67761 -0.17281,-3.90196 -0.95965,-4.56404 -0.2757,-0.23199 -0.45491,-0.28753 -0.92777,-0.28753 -0.80649,0 -1.24638,0.41009 -1.58686,1.47941 -0.33132,1.04057 -0.41829,3.12772 -0.18591,4.46204 0.30302,1.74001 0.80653,2.37945 1.87427,2.38026 0.49165,3.7e-4 0.57818,-0.0406 0.98673,-0.46697 z m 15.83037,2.20278 c -0.39147,-0.1241 -0.74453,-0.27814 -0.78459,-0.34231 -0.0706,-0.11303 0.4034,-1.5698 0.57327,-1.76202 0.0465,-0.0526 0.39154,0.009 0.77124,0.13688 0.90028,0.30403 2.0935,0.31592 2.5696,0.0256 0.4276,-0.26075 0.64165,-0.762 0.54513,-1.27652 -0.0968,-0.51599 -0.64932,-1.1114 -1.74156,-1.87675 -1.89831,-1.33018 -2.53715,-2.29195 -2.53248,-3.81262 0.002,-0.68058 0.0604,-1.00519 0.26155,-1.45502 0.32267,-0.72174 1.038,-1.36824 1.73289,-1.56614 1.09203,-0.31102 3.70403,-0.0599 4.07921,0.39212 0.0785,0.0946 0.0463,0.34614 -0.10715,0.83473 -0.33285,1.06019 -0.32091,1.05043 -1.01688,0.83105 -0.3371,-0.10626 -0.94379,-0.18651 -1.41004,-0.18651 -0.89568,0 -1.22719,0.17386 -1.36296,0.71479 -0.17054,0.67949 0.27696,1.25912 1.81285,2.34808 1.65757,1.17525 2.22595,1.92866 2.39665,3.17685 0.23774,1.73838 -0.33627,3.00484 -1.67958,3.70573 -0.49859,0.26015 -0.67751,0.28845 -1.97187,0.31191 -1.18338,0.0214 -1.54358,-0.0122 -2.13528,-0.19984 z M 81.5597,205.62291 c -0.793258,-1.32936 -2.402494,-4.31131 -2.850225,-5.28152 -0.19455,-0.42159 -0.438713,-0.93898 -0.542585,-1.14977 l -0.188858,-0.38326 0.05466,0.54751 c 0.03005,0.30113 0.08831,2.0381 0.129428,3.85993 l 0.07476,3.31243 h -1.057758 -1.057758 v -5.96784 -5.96784 h 0.86577 0.865771 l 1.366849,2.43641 c 1.562105,2.78445 1.93758,3.51062 2.448772,4.73594 l 0.365463,0.87602 -0.05166,-0.65701 c -0.02839,-0.36136 -0.0815,-2.1476 -0.117972,-3.96943 l -0.06631,-3.31243 h 0.994214 0.994213 v 5.96784 5.96784 h -0.810607 -0.810606 z m 76.55803,-1.25734 c -1.13249,-2.01146 -2.11449,-3.9003 -2.63297,-5.06445 -0.15923,-0.35751 -0.1677,-0.2104 -0.12617,2.19003 0.0245,1.41531 0.0645,3.12764 0.089,3.80518 l 0.0444,1.2319 h -1.08601 -1.08601 v -5.96784 -5.96784 l 0.90339,0.003 0.90339,0.003 1.27985,2.26921 c 1.43531,2.54484 2.25861,4.15218 2.61043,5.09643 0.13058,0.35046 0.26063,0.61398 0.289,0.5856 0.0284,-0.0283 -0.006,-0.33974 -0.0763,-0.69194 -0.0703,-0.35219 -0.15413,-2.1063 -0.1862,-3.89802 l -0.0583,-3.25767 h 1.05468 1.05468 v 5.96783 5.96784 H 160.2458 159.397 Z M 33.196747,200.62792 v -5.90032 l 0.246381,-0.0692 c 0.559421,-0.15701 3.120562,-0.2054 3.826026,-0.0723 1.794127,0.33852 2.764038,1.48525 2.900166,3.42887 0.13295,1.89818 -0.619385,3.47725 -1.956046,4.10556 -0.407971,0.19177 -2.035517,0.46558 -2.767428,0.46558 -0.145514,0 -0.168566,0.26958 -0.168566,1.97103 v 1.97103 h -1.040265 -1.040268 z m 3.93733,-0.31584 c 0.474765,-0.34525 0.771559,-1.07206 0.768836,-1.8828 -0.0048,-1.42943 -0.530636,-1.9752 -1.903047,-1.9752 H 35.27728 v 2.09642 2.09641 l 0.789156,-0.0662 c 0.507724,-0.0426 0.888471,-0.13839 1.067641,-0.26867 z m 3.180274,6.04237 c 0,-0.0956 0.571732,-2.15284 1.270521,-4.57169 0.698785,-2.41886 1.450239,-5.02783 1.669897,-5.79772 l 0.399379,-1.39981 0.872285,0.031 0.872285,0.031 0.456977,1.58777 c 0.251335,0.87328 1.023627,3.54649 1.716199,5.94047 l 1.25922,4.35269 h -1.130206 c -0.984007,0 -1.136789,-0.0248 -1.181089,-0.19163 -0.02798,-0.1054 -0.18794,-0.69808 -0.35546,-1.31706 l -0.304579,-1.12544 -1.425572,0.0304 -1.425572,0.0304 -0.319611,1.28664 -0.319615,1.28665 h -1.02753 c -0.865398,0 -1.027529,-0.0274 -1.027529,-0.17378 z m 5.082203,-4.61691 c -0.0377,-0.16563 -0.159578,-0.6707 -0.270837,-1.1224 -0.18746,-0.76103 -0.540805,-2.6348 -0.540805,-2.86784 0,-0.0559 -0.04278,-0.0752 -0.09507,-0.0429 -0.05229,0.0323 -0.128595,0.31152 -0.169576,0.62045 -0.04097,0.30893 -0.219944,1.20228 -0.397691,1.98522 -0.177746,0.78295 -0.323178,1.49217 -0.323178,1.57605 0,0.11842 0.208563,0.15251 0.93285,0.15251 h 0.93285 z m 13.314062,-1.1224 v -5.91308 h 2.956542 2.956543 v 0.91437 0.91436 l -1.002338,0.0711 c -0.551284,0.0392 -1.38897,0.0712 -1.861524,0.0712 h -0.85919 v 1.42352 1.42352 h 1.697273 1.697274 v 0.98551 0.98551 h -1.697274 -1.697273 v 1.53303 1.53302 h 1.861524 1.861528 v 0.98552 0.98551 h -2.956543 -2.956542 z m 12.59268,-0.0548 v -5.96784 h 1.149768 1.149765 v 5.96784 5.96784 h -1.149765 -1.149768 z m 17.082246,1.0571 v -4.91075 l -1.33506,-0.0718 c -0.878485,-0.0472 -1.364738,-0.11853 -1.421843,-0.20846 -0.04773,-0.0752 -0.08754,-0.49392 -0.08846,-0.93055 l -0.0017,-0.79389 h 3.942061 3.942056 v 0.98551 0.98552 h -1.423523 -1.423519 v 4.92757 4.92757 H 89.48054 88.385521 Z m 6.679598,-1.00226 v -5.91308 h 3.011293 3.011297 v 0.98551 0.98552 h -1.861533 -1.861524 v 1.42352 1.42352 h 1.697274 1.697273 v 0.98551 0.98551 h -1.697273 -1.697274 v 1.53303 1.53302 h 1.916279 1.916278 v 0.98552 0.98551 H 98.131183 95.06514 Z m 8.2658,0.0274 c 0.0442,-3.23714 0.0943,-5.90099 0.1114,-5.91967 0.0988,-0.10798 2.45331,-0.25606 3.29662,-0.20732 1.2225,0.0706 1.94918,0.35631 2.54181,0.99924 0.66142,0.71756 0.82443,1.27397 0.76404,2.60799 -0.038,0.84 -0.11213,1.26182 -0.29357,1.67112 -0.26308,0.5935 -0.90793,1.33249 -1.29509,1.48418 -0.24123,0.0945 -0.24084,0.0964 0.13212,0.65064 0.3568,0.53021 2.02001,3.73376 2.24306,4.32043 l 0.10612,0.2791 -1.22919,-0.002 -1.22918,-0.002 -0.98494,-2.25207 c -0.54173,-1.23864 -1.03448,-2.29224 -1.09502,-2.34135 -0.0605,-0.0491 -0.29485,-0.13969 -0.5207,-0.20133 l -0.41063,-0.11206 v 2.45496 2.45496 h -1.10858 -1.10858 z m 3.66615,-0.65718 c 0.57691,-0.29102 0.81953,-0.8031 0.81565,-1.72151 -0.006,-1.31028 -0.49301,-1.85276 -1.60664,-1.78791 -0.70761,0.0412 -0.71281,0.0565 -0.7274,2.14082 l -0.0109,1.5604 0.57489,-1.7e-4 c 0.32928,-1e-4 0.73702,-0.082 0.95441,-0.19163 z m 4.53566,6.35127 c 0.0314,-0.1054 0.7027,-2.45832 1.49173,-5.22871 0.78903,-2.77039 1.5325,-5.36968 1.65216,-5.77621 l 0.21756,-0.73913 h 0.86071 0.86071 l 0.22204,0.73913 c 0.33106,1.10206 3.19384,11.09645 3.19384,11.15019 0,0.0255 -0.49134,0.0464 -1.09187,0.0464 h -1.09186 l -0.21623,-0.73913 c -0.11893,-0.40653 -0.28208,-0.98552 -0.36255,-1.28665 l -0.1463,-0.5475 -1.42788,-0.0304 -1.42788,-0.0304 -0.13297,0.57793 c -0.0731,0.31786 -0.23182,0.91053 -0.35265,1.31706 l -0.21968,0.73913 h -1.043 c -0.94211,0 -1.03749,-0.0185 -0.98588,-0.19162 z m 5.1042,-4.45556 c 0,-0.0867 -0.1456,-0.7539 -0.32357,-1.48268 -0.17796,-0.72877 -0.35691,-1.61982 -0.39767,-1.9801 -0.0408,-0.36029 -0.11187,-0.6784 -0.15803,-0.70693 -0.0461,-0.0285 -0.14071,0.28055 -0.21013,0.68684 -0.0694,0.40628 -0.27155,1.37667 -0.44917,2.15642 -0.17763,0.77974 -0.32296,1.43264 -0.32296,1.45089 0,0.0182 0.41885,0.0332 0.93077,0.0332 0.73694,0 0.93076,-0.0328 0.93076,-0.15762 z m 14.78272,-0.28043 v -4.92757 h -0.58574 c -0.32216,0 -0.96274,-0.0319 -1.42353,-0.0708 l -0.83778,-0.0708 v -0.91469 -0.9147 h 3.94632 3.94632 l -0.0316,0.95814 -0.0317,0.95814 -1.39614,0.0306 -1.39615,0.0306 v 4.9243 4.9243 h -1.09501 -1.09502 z m 6.89859,-1.04026 v -5.96784 h 1.14977 1.14977 v 5.96784 5.96783 h -1.14977 -1.14977 z M 24.327119,179.59415 v -5.90982 l 39.8312,-0.0341 39.831201,-0.0341 0.87601,-0.23588 c 1.31649,-0.35448 3.06347,-0.98522 3.93372,-1.42026 5.02234,-2.51066 8.32693,-6.72407 9.50416,-12.11798 0.20799,-0.95298 0.24219,-1.43863 0.24021,-3.41073 -0.002,-2.47699 -0.15636,-3.56342 -0.7677,-5.42033 -0.40765,-1.23821 -1.57749,-3.54532 -2.35976,-4.65382 -2.62841,-3.72451 -7.31535,-6.58375 -11.59089,-7.07095 -0.54973,-0.0627 -12.070348,-0.14966 -28.141908,-0.21256 -14.98513,-0.0587 -27.604736,-0.15161 -28.087157,-0.20691 -1.241531,-0.14231 -3.274713,-0.61272 -4.872821,-1.12739 -2.653188,-0.85447 -5.341671,-2.25355 -7.663317,-3.98798 -1.371823,-1.02485 -4.194816,-3.79816 -5.120266,-5.03014 -2.729625,-3.63378 -4.408234,-7.50947 -5.19052,-11.98424 -0.205417,-1.17502 -0.238957,-1.77178 -0.236937,-4.21581 0.0021,-2.43334 0.0375,-3.05088 0.244258,-4.24981 0.795245,-4.61142 2.715509,-8.913804 5.556397,-12.449185 0.948995,-1.180991 2.788472,-3.017385 3.984411,-3.977736 3.718554,-2.986031 7.828557,-4.804786 12.696536,-5.61846 1.484497,-0.248128 13.857573,-0.340655 47.605812,-0.355993 l 27.402772,-0.01246 v 5.908521 5.90852 l -36.381899,0.04459 c -26.138448,0.03203 -36.596317,0.07913 -37.143446,0.167275 -1.121406,0.18066 -2.828708,0.73809 -3.925759,1.281754 -4.721694,2.339904 -7.870762,6.903554 -8.280446,12.000084 -0.113958,1.41764 0.0076,3.51538 0.268722,4.63794 0.451369,1.94032 1.498826,4.1332 2.76153,5.78135 2.147893,2.80354 5.599363,4.87975 9.122407,5.48753 0.801159,0.13822 4.792196,0.17116 27.539648,0.22735 16.257278,0.0401 27.113713,0.10849 27.916733,0.1757 10.56249,0.88409 19.85628,7.59036 24.11458,17.40074 2.73316,6.29674 3.12245,13.04089 1.14721,19.87453 -0.92854,3.21241 -3.04697,7.21511 -5.27988,9.97614 -0.9335,1.15429 -3.11707,3.32948 -4.26701,4.25062 -3.97064,3.18064 -8.72062,5.27101 -13.98507,6.15455 -1.45663,0.24447 -15.753228,0.34074 -53.003947,0.35695 l -28.278784,0.0123 z m 117.897651,5.83776 c -0.0407,-0.0407 -0.0739,-26.13258 -0.0739,-57.98203 V 69.541794 h 5.91319 5.91319 l -0.0275,57.953706 -0.0275,57.95371 -5.81176,0.0283 c -3.19647,0.0156 -5.84504,-0.005 -5.88571,-0.0456 z m 16.35128,-46.79462 V 91.770614 h 5.85834 5.85833 v 46.866676 46.86668 h -5.85833 -5.85834 z M 24.327119,163.12908 v -5.87652 l 8.678,-0.006 c 4.772902,-0.004 22.647665,-0.0483 39.7217,-0.0996 27.905251,-0.0837 31.126721,-0.111 31.864961,-0.26957 2.1323,-0.45802 3.90493,-1.27527 5.84511,-2.69483 1.52595,-1.11648 1.92321,-1.15152 2.4328,-0.21461 0.30516,0.56105 0.30761,4.17334 0.004,5.31082 -0.97926,3.66407 -4.3344,7.23073 -8.15451,8.66861 -0.38611,0.14534 -1.24066,0.41071 -1.89901,0.58971 l -1.19699,0.32547 -38.647828,0.0717 -38.647826,0.0717 z M 129.12013,136.04107 c -0.28982,-0.10657 -0.55703,-0.3886 -1.60587,-1.69494 -4.03589,-5.02676 -9.87585,-8.63588 -16.62614,-10.27501 -2.37802,-0.57744 -4.07869,-0.85854 -5.96784,-0.98643 -2.24507,-0.15198 -16.460802,-0.31963 -28.141904,-0.33187 -5.450443,-0.006 -13.014263,-0.0521 -16.808491,-0.10311 -6.273822,-0.0843 -7.012649,-0.11343 -8.157869,-0.32132 -3.878495,-0.70407 -6.498525,-2.18464 -8.130416,-4.59447 -0.97331,-1.4373 -1.526087,-2.89208 -1.721824,-4.53144 -0.240137,-2.01126 0.223764,-3.92894 1.045201,-4.32066 0.511768,-0.24404 0.999822,-0.0789 2.017932,0.68279 0.555161,0.41535 1.089117,0.70112 1.692196,0.90567 l 0.8811,0.29886 24.34428,-0.0345 c 23.80977,-0.0338 29.011855,0.0186 31.611025,0.31814 7.51104,0.8656 14.04391,3.92322 18.72477,8.76388 2.78749,2.88265 4.56475,5.53352 6.05308,9.02849 0.70211,1.64875 1.07007,2.75283 1.40226,4.20757 0.28795,1.26106 0.32875,1.9731 0.1435,2.50451 -0.0993,0.28487 -0.40654,0.5903 -0.55616,0.55289 -0.019,-0.005 -0.10849,-0.0358 -0.19883,-0.069 z M 24.718196,93.241066 c -0.273146,-0.273151 -0.208265,-1.157765 0.204234,-2.784471 1.2983,-5.119897 3.556132,-9.24028 7.012701,-12.797679 3.910492,-4.024556 8.27058,-6.412818 14.01855,-7.678735 1.751904,-0.385834 5.277779,-0.421907 42.075983,-0.430476 l 33.972866,-0.0079 v 5.858334 5.858335 l -27.293272,0.01279 c -15.011298,0.007 -32.048374,0.04772 -37.86017,0.09043 -10.173387,0.07476 -10.613797,0.08642 -11.826171,0.313212 -4.454801,0.833332 -8.626346,2.628179 -12.445121,5.354621 -1.268659,0.905771 -2.58901,2.0645 -4.889917,4.291338 -0.914918,0.885466 -1.805636,1.718463 -1.979381,1.851111 -0.371211,0.28341 -0.74959,0.309814 -0.990302,0.06911 z M 158.57605,75.400128 v -5.858334 h 5.85834 5.85833 v 5.858334 5.858335 h -5.85833 -5.85834 z"
       id="path1" /></g></svg>
